<svg width="201" height="240" viewBox="0 0 201 240" fill="none" xmlns="http://www.w3.org/2000/svg">
<g opacity="0.3">
<path opacity="0.3" d="M139.67 49.25C134.203 49.2447 128.961 47.0704 125.095 43.2046C121.229 39.3387 119.055 34.097 119.05 28.6299V1.85854e-06H26.92C23.3853 -0.00131167 19.8849 0.693646 16.6189 2.04541C13.3529 3.39718 10.3853 5.37922 7.88538 7.87818C5.38549 10.3771 3.40242 13.3441 2.04944 16.6096C0.696459 19.8751 -2.4406e-07 23.3752 0 26.9099V189.13C-2.4406e-07 192.665 0.696459 196.165 2.04944 199.43C3.40242 202.696 5.38549 205.663 7.88538 208.162C10.3853 210.661 13.3529 212.643 16.6189 213.994C19.8849 215.346 23.3853 216.041 26.92 216.04H137.52C141.054 216.04 144.553 215.344 147.818 213.992C151.083 212.639 154.05 210.657 156.548 208.158C159.047 205.659 161.029 202.693 162.382 199.428C163.734 196.163 164.43 192.664 164.43 189.13V49.25H139.67Z" fill="#0072FF"/>
</g>
<path d="M164.43 49.25H139.67C134.203 49.2447 128.961 47.0704 125.095 43.2046C121.229 39.3387 119.055 34.097 119.05 28.6299V0L164.43 49.25Z" fill="#0072FF"/>
<path d="M130.6 83.73H27.36C26.3681 83.73 25.4169 83.3359 24.7155 82.6345C24.0141 81.9331 23.62 80.9819 23.62 79.99C23.6187 79.498 23.7145 79.0106 23.9019 78.5557C24.0892 78.1008 24.3645 77.6872 24.7119 77.3389C25.0593 76.9905 25.4721 76.7142 25.9265 76.5256C26.3809 76.3371 26.868 76.24 27.36 76.24H130.6C131.595 76.24 132.548 76.6351 133.252 77.3384C133.955 78.0416 134.35 78.9954 134.35 79.99C134.347 80.9828 133.951 81.9342 133.248 82.6353C132.545 83.3364 131.593 83.73 130.6 83.73Z" fill="#0072FF"/>
<path d="M130.6 106.1H27.36C26.3681 106.1 25.4169 105.706 24.7155 105.005C24.0141 104.303 23.62 103.352 23.62 102.36C23.6187 101.868 23.7145 101.381 23.9019 100.926C24.0892 100.471 24.3645 100.057 24.7119 99.709C25.0593 99.3606 25.4721 99.0843 25.9265 98.8958C26.3809 98.7072 26.868 98.6101 27.36 98.6101H130.6C131.595 98.6101 132.548 99.005 133.252 99.7083C133.955 100.412 134.35 101.366 134.35 102.36C134.347 103.353 133.951 104.304 133.248 105.005C132.545 105.706 131.593 106.1 130.6 106.1Z" fill="#0072FF"/>
<path d="M130.6 128.47H27.36C26.868 128.47 26.3809 128.373 25.9265 128.184C25.4721 127.996 25.0593 127.719 24.7119 127.371C24.3645 127.023 24.0892 126.609 23.9019 126.154C23.7145 125.699 23.6187 125.212 23.62 124.72C23.62 123.728 24.0141 122.777 24.7155 122.075C25.4169 121.374 26.3681 120.98 27.36 120.98H130.6C131.593 120.98 132.545 121.374 133.248 122.075C133.951 122.776 134.347 123.727 134.35 124.72C134.35 125.715 133.955 126.668 133.252 127.372C132.548 128.075 131.595 128.47 130.6 128.47Z" fill="#0072FF"/>
<path d="M89.88 150.84H27.36C26.868 150.84 26.3809 150.743 25.9265 150.554C25.4721 150.366 25.0593 150.089 24.7119 149.741C24.3645 149.393 24.0892 148.979 23.9019 148.524C23.7145 148.07 23.6187 147.582 23.62 147.09C23.62 146.098 24.0141 145.147 24.7155 144.445C25.4169 143.744 26.3681 143.35 27.36 143.35H89.88C90.8719 143.35 91.8233 143.744 92.5247 144.445C93.2261 145.147 93.62 146.098 93.62 147.09C93.6213 147.582 93.5256 148.07 93.3383 148.524C93.1509 148.979 92.8756 149.393 92.5282 149.741C92.1808 150.089 91.768 150.366 91.3136 150.554C90.8592 150.743 90.372 150.84 89.88 150.84Z" fill="#0072FF"/>
<path d="M183.95 170.61H58.91C50.0403 170.61 42.8501 177.8 42.8501 186.67V223.95C42.8501 232.82 50.0403 240.01 58.91 240.01H183.95C192.82 240.01 200.01 232.82 200.01 223.95V186.67C200.01 177.8 192.82 170.61 183.95 170.61Z" fill="#0072FF"/>
<path d="M76.2201 213.38V220.65H68.6901V213.38H76.2201Z" fill="white"/>
<path d="M105.16 213.4C103.908 215.674 102.017 217.53 99.7201 218.74C97.1355 220.062 94.2621 220.718 91.36 220.65H80V190.58H91.36C94.2643 190.508 97.1418 191.15 99.74 192.45C102.027 193.638 103.913 195.474 105.16 197.73C106.453 200.13 107.104 202.824 107.05 205.55C107.102 208.285 106.451 210.988 105.16 213.4ZM97.3401 211.89C98.153 211.056 98.7827 210.061 99.1891 208.969C99.5955 207.877 99.7695 206.713 99.7001 205.55C99.77 204.389 99.5961 203.225 99.1897 202.135C98.7833 201.045 98.1532 200.052 97.3401 199.22C95.5182 197.623 93.1385 196.81 90.7201 196.96H87.29V214.14H90.73C93.1431 214.286 95.5169 213.478 97.3401 211.89Z" fill="white"/>
<path d="M133.19 192.09C135.478 193.389 137.369 195.287 138.66 197.58C140.013 200.001 140.703 202.737 140.66 205.51C140.706 208.29 140.016 211.033 138.66 213.46C137.365 215.761 135.467 217.666 133.17 218.97C130.832 220.305 128.182 220.995 125.49 220.97C122.798 220.994 120.148 220.304 117.81 218.97C115.514 217.669 113.619 215.763 112.33 213.46C110.97 211.034 110.28 208.29 110.33 205.51C110.278 202.736 110.969 199.998 112.33 197.58C113.625 195.287 115.519 193.389 117.81 192.09C120.148 190.756 122.798 190.066 125.49 190.09C128.188 190.065 130.845 190.755 133.19 192.09ZM119.79 199.19C118.315 200.955 117.564 203.213 117.69 205.51C117.564 207.797 118.315 210.047 119.79 211.8C120.509 212.581 121.39 213.195 122.371 213.599C123.352 214.004 124.41 214.188 125.47 214.14C126.527 214.185 127.581 213.999 128.559 213.595C129.536 213.191 130.414 212.578 131.13 211.8C132.612 210.05 133.371 207.8 133.25 205.51C133.37 203.223 132.62 200.976 131.15 199.22C130.432 198.438 129.551 197.824 128.57 197.42C127.588 197.015 126.53 196.831 125.47 196.88C124.413 196.831 123.357 197.013 122.377 197.412C121.396 197.81 120.513 198.417 119.79 199.19Z" fill="white"/>
<path d="M167.98 193.3C170.516 195.364 172.241 198.257 172.85 201.47H165.15C164.63 200.139 163.721 198.995 162.54 198.19C161.295 197.38 159.835 196.965 158.35 197C157.37 196.969 156.395 197.163 155.502 197.569C154.609 197.975 153.821 198.581 153.2 199.34C151.808 201.121 151.098 203.342 151.2 205.6C151.098 207.849 151.808 210.06 153.2 211.83C153.826 212.581 154.616 213.18 155.508 213.58C156.4 213.981 157.373 214.172 158.35 214.14C159.835 214.18 161.297 213.764 162.54 212.95C163.714 212.159 164.623 211.034 165.15 209.72H172.85C172.231 212.923 170.508 215.808 167.98 217.87C165.26 219.947 161.9 221.008 158.48 220.87C155.786 220.927 153.126 220.257 150.78 218.93C148.585 217.654 146.804 215.772 145.65 213.51C144.41 211.029 143.793 208.283 143.85 205.51C143.794 202.737 144.411 199.992 145.65 197.51C146.804 195.248 148.585 193.366 150.78 192.09C153.126 190.763 155.786 190.093 158.48 190.15C161.917 190.059 165.278 191.173 167.98 193.3Z" fill="white"/>
</svg>
