<svg width="201" height="240" viewBox="0 0 201 240" fill="none" xmlns="http://www.w3.org/2000/svg">
<g opacity="0.3">
<path opacity="0.3" d="M139.67 49.25C134.203 49.2447 128.961 47.0704 125.095 43.2046C121.229 39.3387 119.055 34.097 119.05 28.6299V1.85854e-06H26.92C23.3853 -0.00131167 19.8849 0.693646 16.6189 2.04541C13.3529 3.39718 10.3851 5.37922 7.88525 7.87818C5.38537 10.3771 3.4023 13.3441 2.04932 16.6096C0.696337 19.8751 -2.4406e-07 23.3752 0 26.9099V189.13C-2.4406e-07 192.665 0.696337 196.165 2.04932 199.43C3.4023 202.696 5.38537 205.663 7.88525 208.162C10.3851 210.661 13.3529 212.643 16.6189 213.994C19.8849 215.346 23.3853 216.041 26.92 216.04H137.52C144.657 216.04 151.502 213.205 156.548 208.158C161.595 203.112 164.43 196.267 164.43 189.13V49.25H139.67Z" fill="#0072FF"/>
</g>
<path d="M164.43 49.25H139.67C134.203 49.2447 128.961 47.0704 125.095 43.2046C121.229 39.3387 119.055 34.097 119.05 28.6299V0L164.43 49.25Z" fill="#0072FF"/>
<path d="M130.6 83.73H27.36C26.3681 83.73 25.4169 83.3359 24.7155 82.6345C24.0141 81.9331 23.62 80.9819 23.62 79.99C23.6187 79.498 23.7145 79.0106 23.9019 78.5557C24.0892 78.1008 24.3645 77.6872 24.7119 77.3389C25.0593 76.9905 25.472 76.7142 25.9264 76.5256C26.3808 76.3371 26.868 76.24 27.36 76.24H130.6C131.595 76.24 132.548 76.6351 133.252 77.3384C133.955 78.0416 134.35 78.9954 134.35 79.99C134.347 80.9828 133.951 81.9342 133.248 82.6353C132.545 83.3364 131.593 83.73 130.6 83.73Z" fill="#0072FF"/>
<path d="M130.6 106.1H27.36C26.3681 106.1 25.4169 105.706 24.7155 105.005C24.0141 104.303 23.62 103.352 23.62 102.36C23.6187 101.868 23.7145 101.381 23.9019 100.926C24.0892 100.471 24.3645 100.057 24.7119 99.709C25.0593 99.3606 25.472 99.0843 25.9264 98.8958C26.3808 98.7072 26.868 98.6101 27.36 98.6101H130.6C131.595 98.6101 132.548 99.005 133.252 99.7083C133.955 100.412 134.35 101.366 134.35 102.36C134.347 103.353 133.951 104.304 133.248 105.005C132.545 105.706 131.593 106.1 130.6 106.1Z" fill="#0072FF"/>
<path d="M130.6 128.47H27.36C26.868 128.47 26.3808 128.373 25.9264 128.184C25.472 127.996 25.0593 127.719 24.7119 127.371C24.3645 127.023 24.0892 126.609 23.9019 126.154C23.7145 125.699 23.6187 125.212 23.62 124.72C23.62 123.728 24.0141 122.777 24.7155 122.075C25.4169 121.374 26.3681 120.98 27.36 120.98H130.6C131.593 120.98 132.545 121.374 133.248 122.075C133.951 122.776 134.347 123.727 134.35 124.72C134.35 125.715 133.955 126.668 133.252 127.372C132.548 128.075 131.595 128.47 130.6 128.47Z" fill="#0072FF"/>
<path d="M89.86 150.84H27.36C26.868 150.84 26.3808 150.743 25.9264 150.554C25.472 150.366 25.0593 150.089 24.7119 149.741C24.3645 149.393 24.0892 148.979 23.9019 148.524C23.7145 148.07 23.6187 147.582 23.62 147.09C23.62 146.098 24.0141 145.147 24.7155 144.445C25.4169 143.744 26.3681 143.35 27.36 143.35H89.86C90.8519 143.35 91.8031 143.744 92.5045 144.445C93.2059 145.147 93.6 146.098 93.6 147.09C93.6013 147.582 93.5055 148.07 93.3181 148.524C93.1308 148.979 92.8555 149.393 92.5081 149.741C92.1607 150.089 91.748 150.366 91.2936 150.554C90.8392 150.743 90.352 150.84 89.86 150.84Z" fill="#0072FF"/>
<path d="M183.95 170.61H58.91C50.0403 170.61 42.85 177.8 42.85 186.67V223.95C42.85 232.82 50.0403 240.01 58.91 240.01H183.95C192.82 240.01 200.01 232.82 200.01 223.95V186.67C200.01 177.8 192.82 170.61 183.95 170.61Z" fill="#0072FF"/>
<path d="M61.1799 213.38V220.65H53.65V213.38H61.1799Z" fill="white"/>
<path d="M90.12 213.4C88.8651 215.671 86.9744 217.527 84.6799 218.74C82.0954 220.062 79.2221 220.718 76.3199 220.65H64.96V190.58H76.3199C79.2241 190.509 82.1013 191.151 84.7 192.45C86.9874 193.637 88.873 195.474 90.12 197.73C91.4129 200.13 92.064 202.824 92.01 205.55C92.0615 208.285 91.4107 210.988 90.12 213.4ZM82.2999 211.89C83.1128 211.055 83.7427 210.061 84.149 208.969C84.5554 207.877 84.7295 206.713 84.66 205.55C84.7299 204.389 84.5561 203.225 84.1497 202.135C83.7432 201.045 83.1131 200.052 82.2999 199.22C80.478 197.622 78.0984 196.81 75.6799 196.96H72.24V214.14H75.6799C78.0964 214.288 80.4743 213.48 82.2999 211.89Z" fill="white"/>
<path d="M118.15 192.09C120.438 193.389 122.329 195.287 123.62 197.58C124.973 200.001 125.663 202.737 125.62 205.51C125.671 208.29 124.98 211.034 123.62 213.46C122.332 215.763 120.436 217.669 118.14 218.97C115.802 220.305 113.152 220.995 110.46 220.97C107.768 220.995 105.118 220.305 102.78 218.97C100.484 217.669 98.5884 215.763 97.3 213.46C95.9397 211.034 95.2494 208.29 95.3 205.51C95.2481 202.736 95.9386 199.998 97.3 197.58C98.595 195.287 100.489 193.389 102.78 192.09C105.118 190.755 107.768 190.065 110.46 190.09C113.155 190.066 115.808 190.756 118.15 192.09ZM104.75 199.19C103.275 200.955 102.524 203.213 102.65 205.51C102.524 207.797 103.275 210.047 104.75 211.8C105.469 212.581 106.349 213.195 107.331 213.599C108.312 214.004 109.37 214.188 110.43 214.14C111.487 214.184 112.54 213.997 113.518 213.593C114.495 213.189 115.373 212.577 116.09 211.8C117.572 210.05 118.331 207.8 118.21 205.51C118.33 203.223 117.58 200.976 116.11 199.22C115.392 198.438 114.511 197.824 113.53 197.42C112.548 197.015 111.49 196.831 110.43 196.88C109.372 196.831 108.317 197.013 107.336 197.412C106.356 197.81 105.473 198.417 104.75 199.19Z" fill="white"/>
<path d="M152.94 193.3C155.476 195.364 157.201 198.257 157.81 201.47H150.11C149.591 200.139 148.681 198.995 147.5 198.19C146.255 197.38 144.795 196.965 143.31 197C142.33 196.969 141.355 197.163 140.462 197.569C139.569 197.975 138.781 198.581 138.16 199.34C136.768 201.122 136.059 203.342 136.16 205.6C136.058 207.849 136.768 210.06 138.16 211.83C138.786 212.581 139.576 213.18 140.468 213.58C141.361 213.981 142.332 214.172 143.31 214.14C144.795 214.18 146.257 213.764 147.5 212.95C148.674 212.159 149.584 211.034 150.11 209.72H157.81C157.191 212.923 155.468 215.808 152.94 217.87C150.22 219.947 146.86 221.008 143.44 220.87C140.746 220.927 138.086 220.257 135.74 218.93C133.545 217.654 131.764 215.772 130.61 213.51C129.367 211.029 128.746 208.284 128.8 205.51C128.747 202.736 129.368 199.991 130.61 197.51C131.764 195.248 133.545 193.366 135.74 192.09C138.086 190.763 140.746 190.093 143.44 190.15C146.877 190.059 150.238 191.173 152.94 193.3Z" fill="white"/>
<path d="M180.14 220.65L173.8 211.29L168.36 220.65H160.02L169.64 205.17L159.73 190.58H168.36L174.53 199.64L179.84 190.58H188.14L178.65 205.72L188.77 220.65H180.14Z" fill="white"/>
</svg>
