<svg width="201" height="240" viewBox="0 0 201 240" fill="none" xmlns="http://www.w3.org/2000/svg">
<g opacity="0.3">
<path opacity="0.3" d="M139.67 49.24C134.203 49.2347 128.961 47.0606 125.095 43.1947C121.229 39.3288 119.055 34.0871 119.05 28.62V1.85821e-06H26.92C23.3853 -0.00131167 19.8849 0.693768 16.6189 2.04553C13.3529 3.3973 10.3851 5.37928 7.88525 7.87824C5.38537 10.3772 3.4023 13.3442 2.04932 16.6097C0.696337 19.8752 -2.4406e-07 23.3753 0 26.91V189.13C0.0106004 196.262 2.8518 203.098 7.89941 208.136C12.947 213.174 19.7883 216.003 26.92 216H137.52C144.657 216 151.502 213.165 156.548 208.118C161.595 203.072 164.43 196.227 164.43 189.09V49.24H139.67Z" fill="#FF9908"/>
</g>
<path d="M164.43 49.24H139.67C134.203 49.2347 128.961 47.0606 125.095 43.1947C121.229 39.3288 119.055 34.0871 119.05 28.62V0L164.43 49.24Z" fill="#FF9908"/>
<path d="M183.95 170.6H58.91C50.0403 170.6 42.85 177.79 42.85 186.66V223.94C42.85 232.81 50.0403 240 58.91 240H183.95C192.82 240 200.01 232.81 200.01 223.94V186.66C200.01 177.79 192.82 170.6 183.95 170.6Z" fill="#FF9908"/>
<path d="M90.46 213.37V220.64H82.9299V213.37H90.46Z" fill="white"/>
<path d="M117.64 193C120.067 194.816 121.697 197.5 122.19 200.49H114.49C113.985 199.415 113.17 198.517 112.15 197.91C111.008 197.23 109.699 196.884 108.37 196.91C107.335 196.867 106.304 197.052 105.349 197.451C104.393 197.85 103.537 198.454 102.84 199.22C101.375 200.974 100.629 203.218 100.75 205.5C100.75 208.36 101.48 210.557 102.94 212.09C103.762 212.887 104.742 213.503 105.817 213.899C106.892 214.295 108.037 214.462 109.18 214.39C110.811 214.418 112.408 213.916 113.73 212.96C115.073 211.949 116.044 210.521 116.49 208.9H107.3V203.67H122.57V211C121.986 212.79 121.063 214.45 119.85 215.89C118.538 217.439 116.908 218.688 115.07 219.55C112.984 220.512 110.707 220.991 108.41 220.95C105.619 221.022 102.858 220.353 100.41 219.01C98.1688 217.751 96.3414 215.868 95.1501 213.59C93.8869 211.133 93.2512 208.402 93.3 205.64C93.2446 202.861 93.8804 200.112 95.1501 197.64C96.3393 195.367 98.1586 193.485 100.39 192.22C102.803 190.891 105.526 190.225 108.28 190.29C111.615 190.126 114.909 191.08 117.64 193Z" fill="white"/>
<path d="M133.93 190.57V220.64H126.66V190.57H133.93Z" fill="white"/>
<path d="M158.56 190.57V196.36H146.22V203H155.75V208.53H146.22V220.69H138.95V190.62L158.56 190.57Z" fill="white"/>
<path d="M77.64 154.43C66.7304 154.417 56.2714 150.077 48.5571 142.363C40.8429 134.649 36.5032 124.19 36.49 113.28C36.5032 102.37 40.8429 91.9114 48.5571 84.1971C56.2714 76.4829 66.7304 72.1432 77.64 72.13C88.5496 72.1432 99.0085 76.4829 106.723 84.1971C114.437 91.9114 118.777 102.37 118.79 113.28C118.777 124.19 114.437 134.649 106.723 142.363C99.0085 150.077 88.5496 154.417 77.64 154.43ZM77.64 79.34C68.6434 79.3559 60.0199 82.9368 53.6583 89.2983C47.2968 95.6599 43.7158 104.283 43.7 113.28C43.7158 122.277 47.2968 130.9 53.6583 137.262C60.0199 143.623 68.6434 147.204 77.64 147.22C86.6366 147.204 95.2602 143.623 101.622 137.262C107.983 130.9 111.564 122.277 111.58 113.28C111.564 104.283 107.983 95.6599 101.622 89.2983C95.2602 82.9368 86.6366 79.3559 77.64 79.34Z" fill="#FF9908"/>
<path d="M77.64 136.34C72.9378 136.347 68.3067 135.192 64.1582 132.978C60.0097 130.764 56.4722 127.56 53.86 123.65L59.86 119.65C61.8112 122.571 64.4529 124.965 67.5509 126.62C70.6489 128.276 74.1075 129.141 77.62 129.14C81.1338 129.142 84.5935 128.276 87.6919 126.618C90.7902 124.961 93.4312 122.564 95.38 119.64L101.38 123.64C98.7734 127.547 95.2429 130.75 91.1017 132.965C86.9605 135.181 82.3366 136.34 77.64 136.34Z" fill="#FF9908"/>
<path d="M66.23 106.97C68.8755 106.97 71.02 104.825 71.02 102.18C71.02 99.5346 68.8755 97.39 66.23 97.39C63.5846 97.39 61.4401 99.5346 61.4401 102.18C61.4401 104.825 63.5846 106.97 66.23 106.97Z" fill="#FF9908"/>
<path d="M89.05 106.97C91.6954 106.97 93.84 104.825 93.84 102.18C93.84 99.5346 91.6954 97.39 89.05 97.39C86.4045 97.39 84.26 99.5346 84.26 102.18C84.26 104.825 86.4045 106.97 89.05 106.97Z" fill="#FF9908"/>
</svg>
