<svg width="200" height="240" viewBox="0 0 200 240" fill="none" xmlns="http://www.w3.org/2000/svg">
<g opacity="0.3">
<path opacity="0.3" d="M139.67 49.24C134.202 49.2373 128.959 47.0641 125.093 43.1976C121.226 39.3312 119.053 34.0879 119.05 28.62V0H26.9102C23.3754 -2.4406e-07 19.8754 0.696337 16.6099 2.04932C13.3443 3.4023 10.3771 5.38537 7.87818 7.88525C5.37922 10.3851 3.39742 13.3529 2.04566 16.6189C0.69389 19.8849 -0.00131167 23.3853 1.85789e-06 26.92V189.13C-0.00131167 192.665 0.69389 196.165 2.04566 199.431C3.39742 202.697 5.37922 205.665 7.87818 208.165C10.3771 210.665 13.3443 212.648 16.6099 214.001C19.8754 215.354 23.3754 216.05 26.9102 216.05H137.51C141.045 216.05 144.545 215.354 147.81 214.001C151.076 212.648 154.043 210.665 156.542 208.165C159.041 205.665 161.023 202.697 162.375 199.431C163.726 196.165 164.421 192.665 164.42 189.13V49.25L139.67 49.24Z" fill="#00C650"/>
</g>
<path d="M164.42 49.24H139.67C134.202 49.2373 128.959 47.0641 125.093 43.1976C121.226 39.3312 119.053 34.0879 119.05 28.62V0L164.42 49.24Z" fill="#00C650"/>
<path d="M183.94 170.6H58.9001C50.0305 170.6 42.8401 177.79 42.8401 186.66V223.94C42.8401 232.81 50.0305 240 58.9001 240H183.94C192.81 240 200 232.81 200 223.94V186.66C200 177.79 192.81 170.6 183.94 170.6Z" fill="#00C650"/>
<path d="M84.22 213.37V220.65H76.6902V213.37H84.22Z" fill="white"/>
<path d="M106.57 190.58V211.12C106.57 214.273 105.713 216.697 104 218.39C103.044 219.272 101.92 219.952 100.695 220.39C99.4696 220.828 98.1689 221.015 96.8701 220.94C95.4476 221.016 94.0241 220.81 92.6819 220.333C91.3396 219.856 90.1052 219.117 89.05 218.16C87.1234 216.3 86.1568 213.633 86.1501 210.16H93.3401C93.3401 212.97 94.41 214.37 96.53 214.37C98.38 214.37 99.3 213.29 99.3 211.14V190.6L106.57 190.58Z" fill="white"/>
<path d="M118.63 210.1V220.65H111.36V190.58H123.14C126.707 190.58 129.427 191.463 131.3 193.23C132.248 194.159 132.989 195.278 133.473 196.514C133.957 197.75 134.174 199.074 134.11 200.4C134.137 202.147 133.706 203.871 132.86 205.4C131.989 206.891 130.694 208.088 129.14 208.84C127.268 209.729 125.212 210.16 123.14 210.1H118.63ZM126.71 200.4C126.71 197.733 125.25 196.4 122.33 196.4H118.63V204.23H122.33C125.25 204.257 126.71 202.98 126.71 200.4Z" fill="white"/>
<path d="M161.08 193C163.501 194.821 165.13 197.502 165.63 200.49H157.93C157.409 199.444 156.587 198.576 155.57 198C154.425 197.32 153.112 196.973 151.78 197C150.746 196.958 149.715 197.144 148.761 197.545C147.807 197.946 146.953 198.552 146.26 199.32C144.793 201.069 144.046 203.311 144.17 205.59C144.17 208.45 144.9 210.647 146.36 212.18C147.181 212.976 148.159 213.592 149.232 213.988C150.305 214.384 151.449 214.552 152.59 214.48C154.222 214.51 155.819 214.008 157.14 213.05C158.489 212.042 159.464 210.614 159.91 208.99H150.72V203.76H165.99V210.95C165.407 212.74 164.483 214.4 163.27 215.84C161.956 217.391 160.322 218.64 158.48 219.5C156.397 220.462 154.124 220.941 151.83 220.9C149.04 220.973 146.28 220.307 143.83 218.97C141.589 217.71 139.764 215.822 138.58 213.54C137.308 211.069 136.672 208.319 136.73 205.54C136.68 202.778 137.316 200.046 138.58 197.59C139.762 195.313 141.579 193.427 143.81 192.16C146.224 190.833 148.946 190.167 151.7 190.23C155.048 190.084 158.349 191.059 161.08 193Z" fill="white"/>
<path d="M104.3 146.41H60.1301C55.8061 146.405 51.6606 144.685 48.603 141.627C45.5455 138.57 43.8254 134.424 43.8201 130.1V85.9301C43.8254 81.606 45.5455 77.4605 48.603 74.403C51.6606 71.3454 55.8061 69.6253 60.1301 69.62H104.3C108.623 69.6253 112.768 71.3457 115.823 74.4036C118.879 77.4614 120.597 81.6069 120.6 85.9301V130.1C120.597 134.423 118.879 138.569 115.823 141.626C112.768 144.684 108.623 146.405 104.3 146.41ZM60.1301 76.83C57.7175 76.8326 55.4043 77.7923 53.6982 79.4983C51.9922 81.2043 51.0327 83.5174 51.03 85.9301V130.1C51.0327 132.513 51.9922 134.826 53.6982 136.532C55.4043 138.238 57.7175 139.197 60.1301 139.2H104.3C106.712 139.197 109.024 138.237 110.728 136.531C112.433 134.825 113.39 132.512 113.39 130.1V85.9301C113.39 83.5183 112.433 81.2052 110.728 79.4989C109.024 77.7926 106.712 76.8326 104.3 76.83H60.1301Z" fill="#00C650"/>
<path d="M117 121.7V130.1C116.997 133.467 115.658 136.696 113.277 139.077C110.896 141.458 107.667 142.797 104.3 142.8H60.1301C56.7619 142.8 53.5316 141.462 51.1499 139.08C48.7682 136.698 47.4302 133.468 47.4302 130.1V116C54.5002 114.48 65.2701 114 78.3401 119.22L86.4402 111.5L91.96 125.5C91.96 125.5 93.44 120.35 98.22 121.08C103 121.81 110.74 124.4 114.05 122.19C114.942 121.675 115.99 121.501 117 121.7Z" fill="#00C650"/>
<path d="M101.53 94.95C104.242 94.95 106.44 92.7518 106.44 90.04C106.44 87.3283 104.242 85.13 101.53 85.13C98.8183 85.13 96.6201 87.3283 96.6201 90.04C96.6201 92.7518 98.8183 94.95 101.53 94.95Z" fill="#00C650"/>
</svg>
