<svg width="57" height="60" viewBox="0 0 57 60" fill="none" xmlns="http://www.w3.org/2000/svg">
<path fill-rule="evenodd" clip-rule="evenodd" d="M17.8158 55.5309C12.6884 54.6586 7.37656 54.4401 2.2266 54.2629C1.11766 54.2281 0.153681 55.0033 0.154436 55.9849C0.0767576 56.9737 0.934647 57.8024 1.9651 57.8436C6.95628 58.0114 12.1072 58.2064 16.9953 59.05C18.0374 59.2345 19.092 58.5948 19.329 57.6225C19.5661 56.651 18.8579 55.716 17.8158 55.5309Z" fill="#51953B"/>
<path fill-rule="evenodd" clip-rule="evenodd" d="M28.3684 34.945C20.2195 27.8212 11.2025 21.7701 3.1828 14.4269C2.46542 13.7385 1.29398 13.7937 0.620117 14.5455C-0.0536858 15.298 -0.0317007 16.4696 0.7587 17.152C8.78021 24.518 17.7991 30.5912 25.9498 37.7378C26.7387 38.4026 27.9075 38.318 28.5797 37.5464C29.179 36.7814 29.1573 35.6098 28.3684 34.945Z" fill="#51953B"/>
<path fill-rule="evenodd" clip-rule="evenodd" d="M40.3339 4.07971C40.9207 8.78186 41.5071 13.484 42.0939 18.187C42.1818 19.2678 43.0635 20.0362 44.0084 19.9065C44.9531 19.7761 45.5559 18.801 45.4681 17.7194C44.8806 13.0094 44.2937 8.30014 43.7063 3.59094C43.5507 2.51561 42.6696 1.75266 41.7253 1.88861C40.8487 2.01905 40.1783 3.00517 40.3339 4.07971Z" fill="#51953B"/>
</svg>
