<svg width="200" height="240" viewBox="0 0 200 240" fill="none" xmlns="http://www.w3.org/2000/svg">
<g opacity="0.3">
<path opacity="0.3" d="M139.67 49.25C134.203 49.2447 128.961 47.0704 125.095 43.2046C121.229 39.3387 119.055 34.097 119.05 28.6299V0H26.91C19.773 0 12.9284 2.83523 7.88177 7.88184C2.83517 12.9284 0 19.7729 0 26.9099V189.13C0.0105984 196.26 2.85042 203.094 7.89587 208.132C12.9413 213.17 19.7799 216 26.91 216H137.52C144.65 216 151.489 213.17 156.534 208.132C161.58 203.094 164.419 196.26 164.43 189.13V49.25H139.67Z" fill="#FF3E4C"/>
</g>
<path d="M164.43 49.25H139.67C134.203 49.2447 128.961 47.0704 125.095 43.2046C121.229 39.3387 119.055 34.097 119.05 28.6299V0L164.43 49.25Z" fill="#FF3E4C"/>
<path d="M130.6 150.84H27.36C26.3654 150.84 25.4116 150.445 24.7083 149.742C24.0051 149.038 23.61 148.085 23.61 147.09C23.6126 146.097 24.0089 145.146 24.7119 144.445C25.4148 143.744 26.3672 143.35 27.36 143.35H130.6C131.592 143.35 132.543 143.744 133.245 144.445C133.946 145.147 134.34 146.098 134.34 147.09C134.341 147.582 134.246 148.07 134.058 148.524C133.871 148.979 133.596 149.393 133.248 149.741C132.901 150.089 132.488 150.366 132.034 150.554C131.579 150.743 131.092 150.84 130.6 150.84Z" fill="#FF3E4C"/>
<path d="M130.6 108.6H27.36C26.3672 108.6 25.4148 108.206 24.7119 107.505C24.0089 106.804 23.6126 105.853 23.61 104.86C23.61 103.866 24.0051 102.912 24.7083 102.208C25.4116 101.505 26.3654 101.11 27.36 101.11H130.6C131.092 101.11 131.579 101.207 132.034 101.396C132.488 101.584 132.901 101.861 133.248 102.209C133.596 102.557 133.871 102.971 134.058 103.426C134.246 103.881 134.341 104.368 134.34 104.86C134.34 105.852 133.946 106.803 133.245 107.505C132.543 108.206 131.592 108.6 130.6 108.6Z" fill="#FF3E4C"/>
<path d="M130.6 129.72H27.36C26.3654 129.72 25.4116 129.325 24.7083 128.622C24.0051 127.918 23.61 126.965 23.61 125.97C23.6126 124.977 24.0089 124.026 24.7119 123.325C25.4148 122.624 26.3672 122.23 27.36 122.23H130.6C131.592 122.23 132.543 122.624 133.245 123.325C133.946 124.027 134.34 124.978 134.34 125.97C134.341 126.462 134.246 126.949 134.058 127.404C133.871 127.859 133.596 128.273 133.248 128.621C132.901 128.969 132.488 129.246 132.034 129.434C131.579 129.623 131.092 129.72 130.6 129.72Z" fill="#FF3E4C"/>
<path d="M89.88 87.48H27.36C26.3672 87.48 25.4148 87.0864 24.7119 86.3853C24.0089 85.6842 23.6126 84.7328 23.61 83.74C23.61 82.7454 24.0051 81.7916 24.7083 81.0884C25.4116 80.3851 26.3654 79.99 27.36 79.99H89.88C90.8728 79.9926 91.8241 80.3888 92.5252 81.0918C93.2263 81.7948 93.62 82.7472 93.62 83.74C93.6174 84.7311 93.2225 85.6808 92.5217 86.3816C91.8209 87.0824 90.8711 87.4773 89.88 87.48Z" fill="#FF3E4C"/>
<path d="M89.88 66.3601H27.36C26.3672 66.3601 25.4148 65.9662 24.7119 65.2651C24.0089 64.564 23.6126 63.6129 23.61 62.6201C23.61 61.6256 24.0051 60.6715 24.7083 59.9683C25.4116 59.265 26.3654 58.8701 27.36 58.8701H89.88C90.8728 58.8728 91.8241 59.2689 92.5252 59.9719C93.2263 60.6749 93.62 61.6273 93.62 62.6201C93.6174 63.6112 93.2225 64.5609 92.5217 65.2617C91.8209 65.9625 90.8711 66.3575 89.88 66.3601Z" fill="#FF3E4C"/>
<path d="M183.94 170.61H58.9C50.0303 170.61 42.84 177.8 42.84 186.67V223.95C42.84 232.82 50.0303 240.01 58.9 240.01H183.94C192.81 240.01 200 232.82 200 223.95V186.67C200 177.8 192.81 170.61 183.94 170.61Z" fill="#FF3E4C"/>
<path d="M83.86 213.38V220.65H76.34V213.38H83.86Z" fill="white"/>
<path d="M94.92 210.1V220.65H87.65V190.58H99.43C103 190.58 105.73 191.47 107.6 193.24C108.546 194.17 109.285 195.289 109.768 196.525C110.25 197.761 110.466 199.085 110.4 200.41C110.436 202.158 110.005 203.884 109.15 205.41C108.277 206.901 106.983 208.102 105.43 208.86C103.557 209.745 101.501 210.174 99.43 210.11L94.92 210.1ZM103 200.41C103 197.743 101.54 196.41 98.62 196.41H94.92V204.24H98.62C101.54 204.267 103 202.99 103 200.41Z" fill="white"/>
<path d="M139.13 213.4C137.878 215.674 135.987 217.53 133.69 218.74C131.106 220.063 128.232 220.719 125.33 220.65H113.98V190.58H125.33C128.234 190.507 131.112 191.149 133.71 192.45C136 193.634 137.887 195.471 139.13 197.73C140.431 200.128 141.086 202.823 141.03 205.55C141.084 208.287 140.43 210.991 139.13 213.4ZM131.31 211.89C132.123 211.056 132.753 210.061 133.159 208.969C133.565 207.877 133.739 206.713 133.67 205.55C133.74 204.389 133.566 203.225 133.16 202.135C132.753 201.045 132.123 200.052 131.31 199.22C129.491 197.624 127.115 196.812 124.7 196.96H121.25V214.14H124.7C127.113 214.287 129.487 213.478 131.31 211.89Z" fill="white"/>
<path d="M164.76 190.58V196.37H152.43V202.96H161.95V208.49H152.43V220.65H145.15V190.58H164.76Z" fill="white"/>
<path d="M128.77 58.87H111.09C108.008 58.87 105.51 61.3682 105.51 64.45V82.13C105.51 85.2117 108.008 87.71 111.09 87.71H128.77C131.852 87.71 134.35 85.2117 134.35 82.13V64.45C134.35 61.3682 131.852 58.87 128.77 58.87Z" fill="#FF3E4C"/>
</svg>
