<svg width="200" height="240" viewBox="0 0 200 240" fill="none" xmlns="http://www.w3.org/2000/svg">
<g opacity="0.3">
<path opacity="0.3" d="M139.67 49.24C134.203 49.2347 128.961 47.0606 125.095 43.1947C121.229 39.3288 119.055 34.0871 119.05 28.62V0H26.91C19.773 0 12.9284 2.83517 7.88177 7.88177C2.83517 12.9284 0 19.773 0 26.91V189.13C0.0105984 196.26 2.85042 203.094 7.89587 208.132C12.9413 213.17 19.7799 216 26.91 216H137.52C144.652 216 151.492 213.169 156.538 208.129C161.583 203.089 164.422 196.252 164.43 189.12V49.24H139.67Z" fill="#005FAD"/>
</g>
<path d="M164.43 49.24H139.67C134.203 49.2347 128.961 47.0606 125.095 43.1947C121.229 39.3288 119.055 34.0871 119.05 28.62V0L164.43 49.24Z" fill="#005FAD"/>
<path d="M183.94 170.6H58.9C50.0303 170.6 42.84 177.79 42.84 186.66V223.94C42.84 232.81 50.0303 240 58.9 240H183.94C192.81 240 200 232.81 200 223.94V186.66C200 177.79 192.81 170.6 183.94 170.6Z" fill="#005FAD"/>
<path d="M79.06 213.37V220.64H71.53V213.37H79.06Z" fill="white"/>
<path d="M90.12 210.1V220.64H82.84V190.57H94.62C98.2 190.57 100.923 191.457 102.79 193.23C103.738 194.159 104.478 195.279 104.962 196.514C105.446 197.75 105.664 199.074 105.6 200.4C105.631 202.149 105.196 203.875 104.34 205.4C103.472 206.893 102.176 208.091 100.62 208.84C98.7491 209.732 96.6918 210.164 94.62 210.1H90.12ZM98.2 200.4C98.2 197.733 96.74 196.4 93.82 196.4H90.12V204.23H93.82C96.74 204.257 98.2 202.98 98.2 200.4Z" fill="white"/>
<path d="M135.88 220.64H128.61L116.43 202.18V220.64H109.16V190.57H116.43L128.6 209.2V190.57H135.87L135.88 220.64Z" fill="white"/>
<path d="M164.29 193C166.717 194.816 168.347 197.5 168.84 200.49H161.14C160.635 199.419 159.824 198.521 158.81 197.91C157.664 197.231 156.352 196.884 155.02 196.91C153.985 196.867 152.954 197.052 151.999 197.451C151.043 197.85 150.187 198.454 149.49 199.22C148.029 200.976 147.286 203.219 147.41 205.5C147.41 208.36 148.14 210.557 149.6 212.09C150.421 212.887 151.399 213.503 152.472 213.899C153.545 214.295 154.689 214.462 155.83 214.39C157.461 214.418 159.058 213.916 160.38 212.96C161.727 211.952 162.698 210.523 163.14 208.9H153.96V203.67H169.23V211C168.639 212.788 167.712 214.448 166.5 215.89C165.191 217.442 163.56 218.691 161.72 219.55C159.634 220.513 157.357 220.992 155.06 220.95C152.269 221.021 149.509 220.351 147.06 219.01C144.819 217.754 142.994 215.87 141.81 213.59C140.542 211.135 139.907 208.403 139.96 205.64C139.9 202.861 140.536 200.111 141.81 197.64C142.993 195.366 144.809 193.483 147.04 192.22C149.453 190.891 152.176 190.225 154.93 190.29C158.265 190.126 161.558 191.08 164.29 193Z" fill="white"/>
<path d="M54.7 66.72H40.95V80.47H54.7V66.72Z" fill="#005FAD"/>
<path d="M68.46 80.47H54.71V94.22H68.46V80.47Z" fill="#005FAD"/>
<path d="M82.21 66.72H68.46V80.47H82.21V66.72Z" fill="#005FAD"/>
<path d="M95.9601 80.47H82.21V94.22H95.9601V80.47Z" fill="#005FAD"/>
<path d="M109.73 66.72H95.98V80.47H109.73V66.72Z" fill="#005FAD"/>
<path d="M123.48 80.47H109.73V94.22H123.48V80.47Z" fill="#005FAD"/>
<path d="M54.7 94.2H40.95V107.95H54.7V94.2Z" fill="#005FAD"/>
<path d="M68.46 107.95H54.71V121.7H68.46V107.95Z" fill="#005FAD"/>
<path d="M82.21 94.2H68.46V107.95H82.21V94.2Z" fill="#005FAD"/>
<path d="M95.9601 107.95H82.21V121.7H95.9601V107.95Z" fill="#005FAD"/>
<path d="M109.73 94.2H95.98V107.95H109.73V94.2Z" fill="#005FAD"/>
<path d="M123.48 107.95H109.73V121.7H123.48V107.95Z" fill="#005FAD"/>
<path d="M54.7 121.81H40.95V135.56H54.7V121.81Z" fill="#005FAD"/>
<path d="M68.46 135.56H54.71V149.31H68.46V135.56Z" fill="#005FAD"/>
<path d="M82.21 121.81H68.46V135.56H82.21V121.81Z" fill="#005FAD"/>
<path d="M95.9601 135.56H82.21V149.31H95.9601V135.56Z" fill="#005FAD"/>
<path d="M109.73 121.81H95.98V135.56H109.73V121.81Z" fill="#005FAD"/>
<path d="M123.48 135.56H109.73V149.31H123.48V135.56Z" fill="#005FAD"/>
</svg>
