<svg width="201" height="241" viewBox="0 0 201 241" fill="none" xmlns="http://www.w3.org/2000/svg">
<g opacity="0.3">
<path opacity="0.3" d="M139.67 49.25C134.202 49.2421 128.96 47.0657 125.095 43.1982C121.229 39.3308 119.055 34.0881 119.05 28.62V1.85821e-06H26.92C23.3853 -0.00131167 19.8849 0.693768 16.6189 2.04553C13.3529 3.3973 10.3851 5.37922 7.88525 7.87818C5.38537 10.3771 3.4023 13.3441 2.04932 16.6096C0.696337 19.8751 -2.4406e-07 23.3753 0 26.91V189.13C-2.4406e-07 192.665 0.696337 196.165 2.04932 199.43C3.4023 202.696 5.38537 205.663 7.88525 208.162C10.3851 210.661 13.3529 212.643 16.6189 213.995C19.8849 215.346 23.3853 216.041 26.92 216.04H137.52C144.657 216.04 151.502 213.205 156.548 208.158C161.595 203.112 164.43 196.267 164.43 189.13V49.25H139.67Z" fill="#A140FF"/>
</g>
<path d="M164.43 49.25H139.67C134.202 49.2421 128.96 47.0657 125.095 43.1982C121.229 39.3308 119.055 34.0881 119.05 28.62V0L164.43 49.25Z" fill="#A140FF"/>
<path d="M183.95 170.61H58.91C50.0403 170.61 42.85 177.8 42.85 186.67V223.95C42.85 232.82 50.0403 240.01 58.91 240.01H183.95C192.82 240.01 200.01 232.82 200.01 223.95V186.67C200.01 177.8 192.82 170.61 183.95 170.61Z" fill="#A140FF"/>
<path d="M81.91 213.38V220.65H74.38V213.38H81.91Z" fill="white"/>
<path d="M101.14 220.65L94.63 209.29H92.97V220.65H85.7V190.58H98.12C100.188 190.523 102.241 190.944 104.12 191.81C105.662 192.543 106.95 193.72 107.82 195.19C108.657 196.693 109.082 198.39 109.05 200.11C109.108 202.12 108.469 204.088 107.24 205.68C105.901 207.297 104.048 208.405 101.99 208.82L109.14 220.65H101.14ZM92.97 204.32H97.48C98.632 204.407 99.7736 204.049 100.67 203.32C101.025 202.944 101.298 202.498 101.47 202.011C101.642 201.524 101.71 201.005 101.67 200.49C101.703 199.978 101.632 199.465 101.46 198.982C101.288 198.499 101.019 198.056 100.67 197.68C99.7858 196.943 98.647 196.584 97.5 196.68H92.99L92.97 204.32Z" fill="white"/>
<path d="M131.38 215.16H120.11L118.23 220.65H110.58L121.58 190.79H129.95L140.95 220.65H133.21L131.38 215.16ZM129.51 209.63L125.76 198.57L121.98 209.63H129.51Z" fill="white"/>
<path d="M159.24 220.65L152.73 209.29H151.07V220.65H143.8V190.58H156.22C158.288 190.523 160.341 190.944 162.22 191.81C163.762 192.543 165.051 193.72 165.92 195.19C166.757 196.693 167.182 198.39 167.15 200.11C167.209 202.12 166.569 204.088 165.34 205.68C164.001 207.297 162.148 208.405 160.09 208.82L167.24 220.65H159.24ZM151.07 204.32H155.58C156.732 204.405 157.873 204.047 158.77 203.32C159.125 202.944 159.398 202.498 159.57 202.011C159.742 201.524 159.81 201.005 159.77 200.49C159.803 199.978 159.732 199.465 159.56 198.982C159.388 198.499 159.119 198.056 158.77 197.68C157.886 196.943 156.747 196.584 155.6 196.68H151.09L151.07 204.32Z" fill="white"/>
<path d="M94.97 150.84H32.45C31.4571 150.837 30.5059 150.441 29.8048 149.738C29.1037 149.035 28.71 148.083 28.71 147.09C28.71 146.098 29.104 145.147 29.8054 144.445C30.5068 143.744 31.458 143.35 32.45 143.35H94.97C95.462 143.349 95.9494 143.444 96.4043 143.632C96.8592 143.819 97.2726 144.094 97.621 144.442C97.9693 144.789 98.2458 145.202 98.4343 145.657C98.6229 146.111 98.72 146.598 98.72 147.09C98.72 148.085 98.3248 149.038 97.6216 149.742C96.9183 150.445 95.9645 150.84 94.97 150.84Z" fill="#A140FF"/>
<path d="M94.97 128.75H32.45C31.4571 128.747 30.5059 128.351 29.8048 127.648C29.1037 126.945 28.71 125.993 28.71 125C28.7126 124.009 29.1075 123.059 29.8083 122.358C30.5092 121.657 31.4589 121.263 32.45 121.26H94.97C95.9628 121.26 96.9152 121.654 97.6182 122.355C98.3211 123.056 98.7173 124.007 98.72 125C98.72 125.995 98.3248 126.948 97.6216 127.652C96.9183 128.355 95.9645 128.75 94.97 128.75Z" fill="#A140FF"/>
<path d="M94.97 106.66H32.45C31.458 106.66 30.5068 106.266 29.8054 105.565C29.104 104.863 28.71 103.912 28.71 102.92C28.71 101.927 29.1037 100.975 29.8048 100.272C30.5059 99.5689 31.4571 99.1727 32.45 99.17H94.97C95.9645 99.17 96.9183 99.565 97.6216 100.268C98.3248 100.972 98.72 101.925 98.72 102.92C98.72 103.412 98.6229 103.899 98.4343 104.354C98.2458 104.808 97.9693 105.221 97.621 105.568C97.2726 105.916 96.8592 106.191 96.4043 106.378C95.9494 106.566 95.462 106.661 94.97 106.66Z" fill="#A140FF"/>
<path d="M94.97 84.57H32.45C31.458 84.57 30.5068 84.176 29.8054 83.4746C29.104 82.7732 28.71 81.8219 28.71 80.83C28.71 79.8381 29.104 78.8868 29.8054 78.1854C30.5068 77.4841 31.458 77.09 32.45 77.09H94.97C95.462 77.0887 95.9494 77.1845 96.4043 77.3718C96.8592 77.5592 97.2726 77.8345 97.621 78.1819C97.9693 78.5293 98.2458 78.9421 98.4343 79.3965C98.6229 79.8509 98.72 80.338 98.72 80.83C98.72 81.322 98.6229 81.8092 98.4343 82.2636C98.2458 82.718 97.9693 83.1307 97.621 83.4782C97.2726 83.8256 96.8592 84.1009 96.4043 84.2882C95.9494 84.4756 95.462 84.5713 94.97 84.57Z" fill="#A140FF"/>
<path d="M123.01 152.52C119.645 152.517 116.419 151.18 114.04 148.8C111.66 146.421 110.323 143.195 110.32 139.83V127.14H135.69V139.83C135.687 143.193 134.351 146.418 131.974 148.797C129.597 151.176 126.373 152.515 123.01 152.52ZM116.81 133.63V139.83C116.813 141.473 117.467 143.049 118.629 144.211C119.791 145.373 121.366 146.027 123.01 146.03C124.654 146.027 126.229 145.373 127.391 144.211C128.553 143.049 129.207 141.473 129.21 139.83V133.63H116.81Z" fill="#A140FF"/>
<path d="M110.32 127.15H123.04V114.43H110.32V127.15Z" fill="#A140FF"/>
<path d="M123 114.44H135.72V101.72H123V114.44Z" fill="#A140FF"/>
<path d="M110.32 101.73H123.04V89.01H110.32V101.73Z" fill="#A140FF"/>
<path d="M123 89.02H135.72V76.3H123V89.02Z" fill="#A140FF"/>
</svg>
