<svg width="200" height="240" viewBox="0 0 200 240" fill="none" xmlns="http://www.w3.org/2000/svg">
<g opacity="0.3">
<path opacity="0.3" d="M139.67 49.25C134.203 49.2447 128.961 47.0704 125.095 43.2046C121.23 39.3387 119.055 34.097 119.05 28.6299V0H26.9102C19.7732 0 12.9284 2.83523 7.88184 7.88184C2.83523 12.9284 0 19.7729 0 26.9099V189.13C0 196.267 2.83523 203.112 7.88184 208.158C12.9284 213.205 19.7732 216.04 26.9102 216.04H137.51C144.647 216.04 151.492 213.205 156.538 208.158C161.585 203.112 164.42 196.267 164.42 189.13V49.25H139.67Z" fill="#00C650"/>
</g>
<path d="M164.42 49.25H139.67C134.203 49.2447 128.961 47.0704 125.095 43.2046C121.23 39.3387 119.055 34.097 119.05 28.6299V0L164.42 49.25Z" fill="#00C650"/>
<path d="M183.94 170.61H58.9001C50.0305 170.61 42.8401 177.8 42.8401 186.67V223.95C42.8401 232.82 50.0305 240.01 58.9001 240.01H183.94C192.81 240.01 200 232.82 200 223.95V186.67C200 177.8 192.81 170.61 183.94 170.61Z" fill="#00C650"/>
<path d="M87.4302 213.38V220.65H79.9001V213.38H87.4302Z" fill="white"/>
<path d="M109.46 220.65L103.13 211.29L97.6802 220.65H89.3501L98.96 205.17L89.05 190.58H97.6802L103.85 199.64L109.17 190.58H117.46L107.98 205.72L118.1 220.65H109.46Z" fill="white"/>
<path d="M141.3 216.57C140.437 217.951 139.199 219.057 137.73 219.76C135.942 220.597 133.983 221.005 132.01 220.95C129.033 221.075 126.099 220.206 123.67 218.48C122.596 217.673 121.717 216.635 121.099 215.443C120.481 214.25 120.139 212.933 120.1 211.59H127.84C127.895 212.603 128.327 213.559 129.05 214.27C129.77 214.941 130.726 215.301 131.71 215.27C132.111 215.293 132.513 215.238 132.892 215.105C133.271 214.973 133.621 214.767 133.92 214.5C134.187 214.241 134.397 213.93 134.536 213.585C134.676 213.241 134.742 212.871 134.73 212.5C134.74 212.147 134.679 211.797 134.55 211.468C134.421 211.14 134.227 210.842 133.98 210.59C133.451 210.054 132.823 209.626 132.13 209.33C131.403 209.01 130.383 208.62 129.07 208.16C127.476 207.634 125.92 207.003 124.41 206.27C123.17 205.631 122.105 204.697 121.31 203.55C120.388 202.162 119.932 200.515 120.01 198.85C119.974 197.2 120.449 195.579 121.37 194.21C122.316 192.872 123.624 191.831 125.14 191.21C126.888 190.499 128.764 190.159 130.65 190.21C133.514 190.052 136.343 190.897 138.65 192.6C139.632 193.399 140.437 194.394 141.012 195.522C141.587 196.65 141.92 197.886 141.99 199.15H134.12C134.032 198.265 133.652 197.435 133.04 196.79C132.727 196.49 132.357 196.258 131.951 196.106C131.545 195.955 131.113 195.888 130.68 195.91C129.93 195.876 129.194 196.118 128.61 196.59C128.341 196.845 128.131 197.157 127.996 197.503C127.862 197.848 127.805 198.22 127.83 198.59C127.815 199.262 128.066 199.913 128.53 200.4C129.028 200.919 129.627 201.332 130.29 201.61C131 201.92 132.02 202.32 133.35 202.8C134.973 203.329 136.554 203.977 138.08 204.74C139.327 205.412 140.401 206.364 141.22 207.52C142.153 208.93 142.615 210.6 142.54 212.29C142.527 213.803 142.098 215.284 141.3 216.57Z" fill="white"/>
<path d="M153.83 215.08H163.57V220.65H146.57V190.58H153.85L153.83 215.08Z" fill="white"/>
<path d="M118.89 150.84H45.5701C39.2201 150.84 34.05 144.52 34.05 136.74V83.55C34.05 75.78 39.2201 69.46 45.5701 69.46H118.92C125.26 69.46 130.43 75.78 130.43 83.55V136.74C130.4 144.52 125.23 150.84 118.89 150.84ZM45.5701 76.6599C42.4601 76.6599 39.9402 79.75 39.9402 83.55V136.74C39.9402 140.54 42.4601 143.63 45.5701 143.63H118.92C122.02 143.63 124.54 140.54 124.54 136.74V83.55C124.54 79.75 122.02 76.6599 118.92 76.6599H45.5701Z" fill="#00C650"/>
<path d="M127.46 118.81H36.97V126.02H127.46V118.81Z" fill="#00C650"/>
<path d="M127.46 94.09H36.97V101.3H127.46V94.09Z" fill="#00C650"/>
<path d="M104.28 73.06H97.0701V147.23H104.28V73.06Z" fill="#00C650"/>
<path d="M67.3501 73.06H60.1401V147.23H67.3501V73.06Z" fill="#00C650"/>
</svg>
