<svg width="200" height="241" viewBox="0 0 200 241" fill="none" xmlns="http://www.w3.org/2000/svg">
<g opacity="0.3">
<path opacity="0.3" d="M139.67 49.25C134.202 49.2421 128.96 47.0657 125.095 43.1982C121.229 39.3308 119.055 34.0881 119.05 28.62V0H26.91C19.773 0 12.9284 2.83511 7.88177 7.88171C2.83517 12.9283 0 19.7731 0 26.91V189.13C0.0105984 196.26 2.85042 203.094 7.89587 208.132C12.9413 213.17 19.7799 216 26.91 216H137.52C144.65 216 151.489 213.17 156.534 208.132C161.58 203.094 164.419 196.26 164.43 189.13V49.25H139.67Z" fill="#FF3E4C"/>
</g>
<path d="M164.43 49.25H139.67C134.202 49.2421 128.96 47.0657 125.095 43.1982C121.229 39.3308 119.055 34.0881 119.05 28.62V0L164.43 49.25Z" fill="#FF3E4C"/>
<path d="M183.94 170.61H58.9C50.0303 170.61 42.84 177.8 42.84 186.67V223.95C42.84 232.82 50.0303 240.01 58.9 240.01H183.94C192.81 240.01 200 232.82 200 223.95V186.67C200 177.8 192.81 170.61 183.94 170.61Z" fill="#FF3E4C"/>
<path d="M92.35 213.38V220.65H84.82V213.38H92.35Z" fill="white"/>
<path d="M103.66 214.78H116.93V220.65H95.58V215.12L108.64 196.41H95.75V190.58H116.85V196.11L103.66 214.78Z" fill="white"/>
<path d="M128.67 190.58V220.65H121.43V190.58H128.67Z" fill="white"/>
<path d="M140.96 210.1V220.65H133.69V190.58H145.43C149 190.58 151.73 191.46 153.6 193.24C154.547 194.168 155.287 195.285 155.771 196.519C156.255 197.753 156.473 199.076 156.41 200.4C156.441 202.149 156.006 203.875 155.15 205.4C154.277 206.891 152.983 208.092 151.43 208.85C149.556 209.731 147.5 210.159 145.43 210.1H140.96ZM149.04 200.4C149.04 197.767 147.58 196.433 144.66 196.4H140.96V204.22H144.66C147.58 204.253 149.04 202.98 149.04 200.4Z" fill="white"/>
<path d="M82.2 152.52C78.837 152.515 75.6133 151.176 73.2362 148.797C70.8591 146.418 69.5227 143.193 69.52 139.83V127.14H94.89V139.83C94.8874 143.195 93.5495 146.421 91.1702 148.8C88.791 151.18 85.5648 152.517 82.2 152.52ZM76.01 133.63V139.83C76.01 141.473 76.6618 143.048 77.8224 144.211C78.983 145.373 80.5574 146.027 82.2 146.03C83.8435 146.027 85.419 145.373 86.5811 144.211C87.7433 143.049 88.3973 141.473 88.4 139.83V133.63H76.01Z" fill="#FF3E4C"/>
<path d="M69.51 127.15H82.23V114.43H69.51V127.15Z" fill="#FF3E4C"/>
<path d="M82.2 114.44H94.92V101.72H82.2V114.44Z" fill="#FF3E4C"/>
<path d="M69.51 101.73H82.23V89.01H69.51V101.73Z" fill="#FF3E4C"/>
<path d="M82.2 89.02H94.92V76.3H82.2V89.02Z" fill="#FF3E4C"/>
</svg>
